<?xml version="1.0" encoding="utf-8"?>
<!-- Generator: Adobe Illustrator 22.1.0, SVG Export Plug-In . SVG Version: 6.00 Build 0)  -->
<svg version="1.1" id="Layer_1" xmlns="http://www.w3.org/2000/svg" xmlns:xlink="http://www.w3.org/1999/xlink" x="0px" y="0px"
	 viewBox="0 0 50 50" style="enable-background:new 0 0 50 50;" xml:space="preserve">
<style type="text/css">
	.st0{fill:#5DDAB4;}
	.st1{fill:#FFFFFF;}
</style>
<title>check-01</title>
<path class="st0" d="M27.4,5L27.4,5c0.7,1.3,2.4,1.9,3.7,1.2c0.1-0.1,0.2-0.1,0.4-0.2l0,0c1.2-0.9,2.9-0.6,3.8,0.6
	c0.3,0.4,0.5,1,0.5,1.5l0,0c0,1.5,1.3,2.7,2.8,2.6c0.1,0,0.3,0,0.4,0l0,0c1.5-0.3,2.9,0.7,3.2,2.2c0.1,0.5,0,1.1-0.2,1.6l0,0
	c-0.6,1.4,0,3,1.4,3.6c0.2,0.1,0.3,0.1,0.5,0.2l0,0c1.5,0.4,2.3,2,1.9,3.4c-0.2,0.5-0.5,1-0.9,1.3l0,0c-1.1,1-1.3,2.7-0.3,3.8
	c0.1,0.1,0.2,0.2,0.3,0.3l0,0c1.2,1,1.3,2.7,0.3,3.9c-0.3,0.4-0.8,0.7-1.3,0.9l0,0c-1.5,0.4-2.3,1.9-2,3.3c0,0.1,0.1,0.3,0.1,0.4
	l0,0c0.6,1.4,0,3-1.4,3.6c-0.5,0.2-1,0.3-1.6,0.2l0,0c-1.5-0.3-2.9,0.6-3.3,2.1c0,0.2-0.1,0.4-0.1,0.5l0,0c-0.1,1.5-1.3,2.7-2.8,2.6
	c-0.6,0-1.1-0.2-1.5-0.5l0,0c-1.2-0.9-2.9-0.6-3.8,0.6c-0.1,0.1-0.2,0.2-0.2,0.4l0,0c-0.7,1.3-2.4,1.9-3.7,1.2
	c-0.5-0.3-0.9-0.7-1.2-1.2l0,0c-0.7-1.3-2.4-1.9-3.7-1.2c-0.1,0.1-0.2,0.1-0.4,0.2l0,0c-1.2,0.9-2.9,0.6-3.8-0.6
	c-0.3-0.4-0.5-1-0.5-1.5l0,0c0-1.5-1.3-2.7-2.8-2.6c-0.1,0-0.3,0-0.4,0l0,0c-1.5,0.3-2.9-0.7-3.2-2.2c-0.1-0.5,0-1.1,0.2-1.6l0,0
	c0.6-1.4,0-3-1.4-3.6c-0.2-0.1-0.3-0.1-0.5-0.2l0,0c-1.5-0.4-2.3-2-1.9-3.4c0.2-0.5,0.5-1,0.9-1.3l0,0c1.1-1,1.3-2.7,0.3-3.8
	C5.2,23.1,5.1,23,5,22.9l0,0c-1.2-1-1.3-2.7-0.3-3.9C5,18.6,5.5,18.3,6,18.2l0,0c1.5-0.4,2.3-1.9,2-3.3c0-0.1-0.1-0.3-0.1-0.4l0,0
	c-0.6-1.4,0-3,1.4-3.6c0.5-0.2,1-0.3,1.6-0.2l0,0c1.5,0.3,2.9-0.6,3.3-2.1c0-0.2,0.1-0.4,0.1-0.5l0,0c0.1-1.5,1.3-2.7,2.8-2.6
	c0.6,0,1.1,0.2,1.5,0.5l0,0c1.2,0.9,2.9,0.7,3.8-0.5c0.1-0.1,0.2-0.2,0.2-0.4l0,0c0.7-1.3,2.4-1.9,3.7-1.2C26.8,4.1,27.2,4.5,27.4,5
	z"/>
<path class="st1" d="M38,17.6c0.7,0.7,0.7,1.8,0,2.5L23.7,34.4c-0.7,0.7-1.8,0.7-2.5,0L14,27.3c-0.7-0.7-0.7-1.8,0-2.5
	c0.7-0.7,1.8-0.7,2.5,0l5.9,5.9l13-13C36.2,16.9,37.3,16.9,38,17.6L38,17.6z"/>
</svg>
